<mxfile host="app.diagrams.net" modified="2024-03-09T11:38:50.624Z" agent="Mozilla/5.0 (Windows NT 10.0; Win64; x64; rv:123.0) Gecko/20100101 Firefox/123.0" etag="jg5zYE9GLsL8Wey-U-JS" version="24.0.3" type="device">
  <diagram name="Страница — 1" id="H4S7BTWqfcNojyQk5UP0">
    <mxGraphModel dx="1674" dy="751" grid="1" gridSize="10" guides="1" tooltips="1" connect="1" arrows="1" fold="1" page="1" pageScale="1" pageWidth="827" pageHeight="1169" math="0" shadow="0">
      <root>
        <mxCell id="0" />
        <mxCell id="1" parent="0" />
      </root>
    </mxGraphModel>
  </diagram>
</mxfile>
